<?xml version="1.0" encoding="UTF-8" standalone="no"?>
<?xml-stylesheet href="styles.css" type="text/css"?>
<!DOCTYPE svg PUBLIC "-//W3C//DTD SVG 1.1//EN"
 "http://www.w3.org/Graphics/SVG/1.1/DTD/svg11.dtd">
<!-- Generated by graphviz version 2.40.1 (20161225.0304)
 -->
<!-- Title: ForwardingUnit Pages: 1 -->
<svg width="750pt" height="403pt"
 viewBox="0.00 0.00 750.00 403.00" xmlns="http://www.w3.org/2000/svg" xmlns:xlink="http://www.w3.org/1999/xlink">
<g id="graph0" class="graph" transform="scale(1 1) rotate(0) translate(4 399)">
<title>ForwardingUnit</title>
<polygon fill="#ffffff" stroke="transparent" points="-4,4 -4,-399 746,-399 746,4 -4,4"/>
<g id="clust1" class="cluster">
<title>cluster_ForwardingUnit</title>
<polygon fill="#fff8dc" stroke="#000000" points="8,-8 8,-387 734,-387 734,-8 8,-8"/>
<text text-anchor="middle" x="371" y="-371.8" font-family="Times,serif" font-size="14.00" fill="#000000">ForwardingUnit</text>
</g>
<!-- cluster_ForwardingUnit_io_rs1 -->
<g id="node1" class="node">
<title>cluster_ForwardingUnit_io_rs1</title>
<polygon fill="#cccccc" stroke="#000000" points="88,-344 34,-344 34,-308 88,-308 88,-344"/>
<text text-anchor="middle" x="61" y="-322.3" font-family="Times,serif" font-size="14.00" fill="#000000">io_rs1</text>
</g>
<!-- op_eq_268 -->
<g id="node10" class="node">
<title>op_eq_268</title>
<polygon fill="#d8bfd8" stroke="transparent" points="154,-302 154,-352 223,-352 223,-302 154,-302"/>
<polygon fill="none" stroke="#000000" points="154.5,-327 154.5,-352 173.5,-352 173.5,-327 154.5,-327"/>
<text text-anchor="start" x="159.5" y="-335.8" font-family="Times,serif" font-size="14.00" fill="#000000">●</text>
<polygon fill="none" stroke="#000000" points="173.5,-302 173.5,-352 204.5,-352 204.5,-302 173.5,-302"/>
<text text-anchor="start" x="178.5" y="-323.3" font-family="Times,serif" font-size="14.00" fill="#000000"> eq </text>
<polygon fill="none" stroke="#000000" points="204.5,-302 204.5,-352 223.5,-352 223.5,-302 204.5,-302"/>
<text text-anchor="start" x="209.5" y="-323.3" font-family="Times,serif" font-size="14.00" fill="#000000">●</text>
<polygon fill="none" stroke="#000000" points="154.5,-302 154.5,-327 173.5,-327 173.5,-302 154.5,-302"/>
<text text-anchor="start" x="159.5" y="-310.8" font-family="Times,serif" font-size="14.00" fill="#000000">●</text>
</g>
<!-- cluster_ForwardingUnit_io_rs1&#45;&gt;op_eq_268 -->
<g id="edge15" class="edge">
<title>cluster_ForwardingUnit_io_rs1&#45;&gt;op_eq_268:in1</title>
<path fill="none" stroke="#000000" d="M88.2507,-332.2629C104.0609,-335.4372 124.6792,-338.8159 144.3378,-339.749"/>
<polygon fill="#000000" stroke="#000000" points="144.4166,-343.2519 154.5,-340 144.5895,-336.2541 144.4166,-343.2519"/>
</g>
<!-- op_eq_271 -->
<g id="node15" class="node">
<title>op_eq_271</title>
<polygon fill="#d8bfd8" stroke="transparent" points="154,-150 154,-200 223,-200 223,-150 154,-150"/>
<polygon fill="none" stroke="#000000" points="154.5,-175 154.5,-200 173.5,-200 173.5,-175 154.5,-175"/>
<text text-anchor="start" x="159.5" y="-183.8" font-family="Times,serif" font-size="14.00" fill="#000000">●</text>
<polygon fill="none" stroke="#000000" points="173.5,-150 173.5,-200 204.5,-200 204.5,-150 173.5,-150"/>
<text text-anchor="start" x="178.5" y="-171.3" font-family="Times,serif" font-size="14.00" fill="#000000"> eq </text>
<polygon fill="none" stroke="#000000" points="204.5,-150 204.5,-200 223.5,-200 223.5,-150 204.5,-150"/>
<text text-anchor="start" x="209.5" y="-171.3" font-family="Times,serif" font-size="14.00" fill="#000000">●</text>
<polygon fill="none" stroke="#000000" points="154.5,-150 154.5,-175 173.5,-175 173.5,-150 154.5,-150"/>
<text text-anchor="start" x="159.5" y="-158.8" font-family="Times,serif" font-size="14.00" fill="#000000">●</text>
</g>
<!-- cluster_ForwardingUnit_io_rs1&#45;&gt;op_eq_271 -->
<g id="edge19" class="edge">
<title>cluster_ForwardingUnit_io_rs1&#45;&gt;op_eq_271:in1</title>
<path fill="none" stroke="#000000" d="M79.0928,-307.8119C87.7344,-298.6633 97.926,-287.1677 106,-276 124.8945,-249.8657 119.4797,-236.0832 142,-213 146.1426,-208.7538 151.9516,-208.5018 156.4872,-207.5242"/>
<polygon fill="#000000" stroke="#000000" points="159.2423,-209.7017 163.5,-200 154.1215,-204.929 159.2423,-209.7017"/>
</g>
<!-- cluster_ForwardingUnit_io_rs2 -->
<g id="node2" class="node">
<title>cluster_ForwardingUnit_io_rs2</title>
<polygon fill="#cccccc" stroke="#000000" points="88,-189 34,-189 34,-153 88,-153 88,-189"/>
<text text-anchor="middle" x="61" y="-167.3" font-family="Times,serif" font-size="14.00" fill="#000000">io_rs2</text>
</g>
<!-- op_eq_273 -->
<g id="node18" class="node">
<title>op_eq_273</title>
<polygon fill="#d8bfd8" stroke="transparent" points="154,-226 154,-276 223,-276 223,-226 154,-226"/>
<polygon fill="none" stroke="#000000" points="154.5,-251 154.5,-276 173.5,-276 173.5,-251 154.5,-251"/>
<text text-anchor="start" x="159.5" y="-259.8" font-family="Times,serif" font-size="14.00" fill="#000000">●</text>
<polygon fill="none" stroke="#000000" points="173.5,-226 173.5,-276 204.5,-276 204.5,-226 173.5,-226"/>
<text text-anchor="start" x="178.5" y="-247.3" font-family="Times,serif" font-size="14.00" fill="#000000"> eq </text>
<polygon fill="none" stroke="#000000" points="204.5,-226 204.5,-276 223.5,-276 223.5,-226 204.5,-226"/>
<text text-anchor="start" x="209.5" y="-247.3" font-family="Times,serif" font-size="14.00" fill="#000000">●</text>
<polygon fill="none" stroke="#000000" points="154.5,-226 154.5,-251 173.5,-251 173.5,-226 154.5,-226"/>
<text text-anchor="start" x="159.5" y="-234.8" font-family="Times,serif" font-size="14.00" fill="#000000">●</text>
</g>
<!-- cluster_ForwardingUnit_io_rs2&#45;&gt;op_eq_273 -->
<g id="edge10" class="edge">
<title>cluster_ForwardingUnit_io_rs2&#45;&gt;op_eq_273:in1</title>
<path fill="none" stroke="#000000" d="M76.9174,-189.3738C96.2794,-211.395 128.48,-246.8967 145.4928,-259.4357"/>
<polygon fill="#000000" stroke="#000000" points="143.9978,-262.6018 154.5,-264 147.162,-256.3577 143.9978,-262.6018"/>
</g>
<!-- op_eq_275 -->
<g id="node21" class="node">
<title>op_eq_275</title>
<polygon fill="#d8bfd8" stroke="transparent" points="154,-20 154,-70 223,-70 223,-20 154,-20"/>
<polygon fill="none" stroke="#000000" points="154.5,-45 154.5,-70 173.5,-70 173.5,-45 154.5,-45"/>
<text text-anchor="start" x="159.5" y="-53.8" font-family="Times,serif" font-size="14.00" fill="#000000">●</text>
<polygon fill="none" stroke="#000000" points="173.5,-20 173.5,-70 204.5,-70 204.5,-20 173.5,-20"/>
<text text-anchor="start" x="178.5" y="-41.3" font-family="Times,serif" font-size="14.00" fill="#000000"> eq </text>
<polygon fill="none" stroke="#000000" points="204.5,-20 204.5,-70 223.5,-70 223.5,-20 204.5,-20"/>
<text text-anchor="start" x="209.5" y="-41.3" font-family="Times,serif" font-size="14.00" fill="#000000">●</text>
<polygon fill="none" stroke="#000000" points="154.5,-20 154.5,-45 173.5,-45 173.5,-20 154.5,-20"/>
<text text-anchor="start" x="159.5" y="-28.8" font-family="Times,serif" font-size="14.00" fill="#000000">●</text>
</g>
<!-- cluster_ForwardingUnit_io_rs2&#45;&gt;op_eq_275 -->
<g id="edge20" class="edge">
<title>cluster_ForwardingUnit_io_rs2&#45;&gt;op_eq_275:in1</title>
<path fill="none" stroke="#000000" d="M75.2087,-152.7304C90.4376,-133.8748 115.9564,-104.2903 142,-83 146.7279,-79.135 152.7147,-78.949 157.1695,-77.7477"/>
<polygon fill="#000000" stroke="#000000" points="159.883,-79.9583 163.5,-70 154.4624,-75.5292 159.883,-79.9583"/>
</g>
<!-- cluster_ForwardingUnit_io_exmemrd -->
<g id="node3" class="node">
<title>cluster_ForwardingUnit_io_exmemrd</title>
<polygon fill="#cccccc" stroke="#000000" points="104,-267 18,-267 18,-231 104,-231 104,-267"/>
<text text-anchor="middle" x="61" y="-245.3" font-family="Times,serif" font-size="14.00" fill="#000000">io_exmemrd</text>
</g>
<!-- cluster_ForwardingUnit_io_exmemrd&#45;&gt;op_eq_268 -->
<g id="edge6" class="edge">
<title>cluster_ForwardingUnit_io_exmemrd&#45;&gt;op_eq_268:in2</title>
<path fill="none" stroke="#000000" d="M75.0737,-267.1061C89.9954,-284.3106 115.3585,-308.259 144.1748,-313.1193"/>
<polygon fill="#000000" stroke="#000000" points="144.2387,-316.6373 154.5,-314 144.8337,-309.6627 144.2387,-316.6373"/>
</g>
<!-- cluster_ForwardingUnit_io_exmemrd&#45;&gt;op_eq_273 -->
<g id="edge25" class="edge">
<title>cluster_ForwardingUnit_io_exmemrd&#45;&gt;op_eq_273:in2</title>
<path fill="none" stroke="#000000" d="M104.1674,-241.7856C116.749,-240.1334 130.7576,-238.7105 144.2829,-238.2006"/>
<polygon fill="#000000" stroke="#000000" points="144.5707,-241.6957 154.5,-238 144.4332,-234.6971 144.5707,-241.6957"/>
</g>
<!-- cluster_ForwardingUnit_io_exmemrw -->
<g id="node4" class="node">
<title>cluster_ForwardingUnit_io_exmemrw</title>
<polygon fill="#cccccc" stroke="#000000" points="361.5,-235 272.5,-235 272.5,-199 361.5,-199 361.5,-235"/>
<text text-anchor="middle" x="317" y="-213.3" font-family="Times,serif" font-size="14.00" fill="#000000">io_exmemrw</text>
</g>
<!-- op_and_269 -->
<g id="node12" class="node">
<title>op_and_269</title>
<polygon fill="#d8bfd8" stroke="transparent" points="407,-280 407,-330 483,-330 483,-280 407,-280"/>
<polygon fill="none" stroke="#000000" points="407,-305 407,-330 426,-330 426,-305 407,-305"/>
<text text-anchor="start" x="412" y="-313.8" font-family="Times,serif" font-size="14.00" fill="#000000">●</text>
<polygon fill="none" stroke="#000000" points="426,-280 426,-330 464,-330 464,-280 426,-280"/>
<text text-anchor="start" x="431" y="-301.3" font-family="Times,serif" font-size="14.00" fill="#000000"> and </text>
<polygon fill="none" stroke="#000000" points="464,-280 464,-330 483,-330 483,-280 464,-280"/>
<text text-anchor="start" x="469" y="-301.3" font-family="Times,serif" font-size="14.00" fill="#000000">●</text>
<polygon fill="none" stroke="#000000" points="407,-280 407,-305 426,-305 426,-280 407,-280"/>
<text text-anchor="start" x="412" y="-288.8" font-family="Times,serif" font-size="14.00" fill="#000000">●</text>
</g>
<!-- cluster_ForwardingUnit_io_exmemrw&#45;&gt;op_and_269 -->
<g id="edge24" class="edge">
<title>cluster_ForwardingUnit_io_exmemrw&#45;&gt;op_and_269:in2</title>
<path fill="none" stroke="#000000" d="M327.8934,-235.1554C341.2995,-255.1842 366.1067,-285.3515 396.8256,-291.0526"/>
<polygon fill="#000000" stroke="#000000" points="396.7185,-294.5577 407,-292 397.3676,-287.5878 396.7185,-294.5577"/>
</g>
<!-- op_and_272 -->
<g id="node17" class="node">
<title>op_and_272</title>
<polygon fill="#d8bfd8" stroke="transparent" points="407,-204 407,-254 483,-254 483,-204 407,-204"/>
<polygon fill="none" stroke="#000000" points="407,-229 407,-254 426,-254 426,-229 407,-229"/>
<text text-anchor="start" x="412" y="-237.8" font-family="Times,serif" font-size="14.00" fill="#000000">●</text>
<polygon fill="none" stroke="#000000" points="426,-204 426,-254 464,-254 464,-204 426,-204"/>
<text text-anchor="start" x="431" y="-225.3" font-family="Times,serif" font-size="14.00" fill="#000000"> and </text>
<polygon fill="none" stroke="#000000" points="464,-204 464,-254 483,-254 483,-204 464,-204"/>
<text text-anchor="start" x="469" y="-225.3" font-family="Times,serif" font-size="14.00" fill="#000000">●</text>
<polygon fill="none" stroke="#000000" points="407,-204 407,-229 426,-229 426,-204 407,-204"/>
<text text-anchor="start" x="412" y="-212.8" font-family="Times,serif" font-size="14.00" fill="#000000">●</text>
</g>
<!-- cluster_ForwardingUnit_io_exmemrw&#45;&gt;op_and_272 -->
<g id="edge3" class="edge">
<title>cluster_ForwardingUnit_io_exmemrw&#45;&gt;op_and_272:in2</title>
<path fill="none" stroke="#000000" d="M361.862,-216.3055C373.01,-216.1735 385.1286,-216.0629 396.8435,-216.0196"/>
<polygon fill="#000000" stroke="#000000" points="397.0068,-219.5194 407,-216 396.9932,-212.5194 397.0068,-219.5194"/>
</g>
<!-- cluster_ForwardingUnit_io_memwbrd -->
<g id="node5" class="node">
<title>cluster_ForwardingUnit_io_memwbrd</title>
<polygon fill="#cccccc" stroke="#000000" points="106,-87 16,-87 16,-51 106,-51 106,-87"/>
<text text-anchor="middle" x="61" y="-65.3" font-family="Times,serif" font-size="14.00" fill="#000000">io_memwbrd</text>
</g>
<!-- cluster_ForwardingUnit_io_memwbrd&#45;&gt;op_eq_271 -->
<g id="edge13" class="edge">
<title>cluster_ForwardingUnit_io_memwbrd&#45;&gt;op_eq_271:in2</title>
<path fill="none" stroke="#000000" d="M80.9382,-87.2347C96.9194,-101.4765 120.1995,-121.4002 142,-137 146.9662,-140.5537 152.9307,-140.7689 157.3163,-142.0606"/>
<polygon fill="#000000" stroke="#000000" points="154.594,-144.2613 163.5,-150 160.1165,-139.9599 154.594,-144.2613"/>
</g>
<!-- cluster_ForwardingUnit_io_memwbrd&#45;&gt;op_eq_275 -->
<g id="edge16" class="edge">
<title>cluster_ForwardingUnit_io_memwbrd&#45;&gt;op_eq_275:in2</title>
<path fill="none" stroke="#000000" d="M90.1612,-50.9336C105.3936,-42.9355 124.8819,-34.8293 144.3463,-32.599"/>
<polygon fill="#000000" stroke="#000000" points="144.7235,-36.0829 154.5,-32 144.3112,-29.0951 144.7235,-36.0829"/>
</g>
<!-- cluster_ForwardingUnit_io_memwbrw -->
<g id="node6" class="node">
<title>cluster_ForwardingUnit_io_memwbrw</title>
<polygon fill="#cccccc" stroke="#000000" points="235,-128 142,-128 142,-92 235,-92 235,-128"/>
<text text-anchor="middle" x="188.5" y="-106.3" font-family="Times,serif" font-size="14.00" fill="#000000">io_memwbrw</text>
</g>
<!-- op_and_270 -->
<g id="node14" class="node">
<title>op_and_270</title>
<polygon fill="#d8bfd8" stroke="transparent" points="279,-127 279,-177 355,-177 355,-127 279,-127"/>
<polygon fill="none" stroke="#000000" points="279,-152 279,-177 298,-177 298,-152 279,-152"/>
<text text-anchor="start" x="284" y="-160.8" font-family="Times,serif" font-size="14.00" fill="#000000">●</text>
<polygon fill="none" stroke="#000000" points="298,-127 298,-177 336,-177 336,-127 298,-127"/>
<text text-anchor="start" x="303" y="-148.3" font-family="Times,serif" font-size="14.00" fill="#000000"> and </text>
<polygon fill="none" stroke="#000000" points="336,-127 336,-177 355,-177 355,-127 336,-127"/>
<text text-anchor="start" x="341" y="-148.3" font-family="Times,serif" font-size="14.00" fill="#000000">●</text>
<polygon fill="none" stroke="#000000" points="279,-127 279,-152 298,-152 298,-127 279,-127"/>
<text text-anchor="start" x="284" y="-135.8" font-family="Times,serif" font-size="14.00" fill="#000000">●</text>
</g>
<!-- cluster_ForwardingUnit_io_memwbrw&#45;&gt;op_and_270 -->
<g id="edge18" class="edge">
<title>cluster_ForwardingUnit_io_memwbrw&#45;&gt;op_and_270:in2</title>
<path fill="none" stroke="#000000" d="M226.8447,-128.0363C239.6783,-132.828 254.4337,-137.0709 268.9849,-138.4936"/>
<polygon fill="#000000" stroke="#000000" points="268.836,-141.9904 279,-139 269.1895,-134.9994 268.836,-141.9904"/>
</g>
<!-- op_and_274 -->
<g id="node20" class="node">
<title>op_and_274</title>
<polygon fill="#d8bfd8" stroke="transparent" points="279,-51 279,-101 355,-101 355,-51 279,-51"/>
<polygon fill="none" stroke="#000000" points="279,-76 279,-101 298,-101 298,-76 279,-76"/>
<text text-anchor="start" x="284" y="-84.8" font-family="Times,serif" font-size="14.00" fill="#000000">●</text>
<polygon fill="none" stroke="#000000" points="298,-51 298,-101 336,-101 336,-51 298,-51"/>
<text text-anchor="start" x="303" y="-72.3" font-family="Times,serif" font-size="14.00" fill="#000000"> and </text>
<polygon fill="none" stroke="#000000" points="336,-51 336,-101 355,-101 355,-51 336,-51"/>
<text text-anchor="start" x="341" y="-72.3" font-family="Times,serif" font-size="14.00" fill="#000000">●</text>
<polygon fill="none" stroke="#000000" points="279,-51 279,-76 298,-76 298,-51 279,-51"/>
<text text-anchor="start" x="284" y="-59.8" font-family="Times,serif" font-size="14.00" fill="#000000">●</text>
</g>
<!-- cluster_ForwardingUnit_io_memwbrw&#45;&gt;op_and_274 -->
<g id="edge21" class="edge">
<title>cluster_ForwardingUnit_io_memwbrw&#45;&gt;op_and_274:in2</title>
<path fill="none" stroke="#000000" d="M219.7332,-91.963C236.8017,-82.3329 256.896,-71.4072 269.1214,-66.1522"/>
<polygon fill="#000000" stroke="#000000" points="270.5373,-69.3744 279,-63 268.4093,-62.7056 270.5373,-69.3744"/>
</g>
<!-- cluster_ForwardingUnit_io_forwardA -->
<g id="node7" class="node">
<title>cluster_ForwardingUnit_io_forwardA</title>
<polygon fill="#e0ffff" stroke="#000000" points="726,-253 640,-253 640,-217 726,-217 726,-253"/>
<text text-anchor="middle" x="683" y="-231.3" font-family="Times,serif" font-size="14.00" fill="#000000">io_forwardA</text>
</g>
<!-- cluster_ForwardingUnit_io_forwardB -->
<g id="node8" class="node">
<title>cluster_ForwardingUnit_io_forwardB</title>
<polygon fill="#e0ffff" stroke="#000000" points="726,-177 640,-177 640,-141 726,-141 726,-177"/>
<text text-anchor="middle" x="683" y="-155.3" font-family="Times,serif" font-size="14.00" fill="#000000">io_forwardB</text>
</g>
<!-- cluster_ForwardingUnit__T -->
<g id="node9" class="node">
<title>cluster_ForwardingUnit__T</title>
<polygon fill="none" stroke="#000000" points="344,-342 290,-342 290,-306 344,-306 344,-342"/>
<text text-anchor="middle" x="317" y="-320.3" font-family="Times,serif" font-size="14.00" fill="#000000">_T</text>
</g>
<!-- cluster_ForwardingUnit__T&#45;&gt;op_and_269 -->
<g id="edge7" class="edge">
<title>cluster_ForwardingUnit__T&#45;&gt;op_and_269:in1</title>
<path fill="none" stroke="#000000" d="M344.1436,-321.2458C359.1992,-319.915 378.5466,-318.5192 396.9237,-318.1155"/>
<polygon fill="#000000" stroke="#000000" points="397.0408,-321.6145 407,-318 396.9605,-314.6149 397.0408,-321.6145"/>
</g>
<!-- op_eq_268&#45;&gt;cluster_ForwardingUnit__T -->
<g id="edge4" class="edge">
<title>op_eq_268:out&#45;&gt;cluster_ForwardingUnit__T</title>
<path fill="none" stroke="#000000" d="M223.5,-327C241.9259,-327 262.3839,-326.4108 279.4538,-325.7546"/>
<polygon fill="#000000" stroke="#000000" points="279.7465,-329.2457 289.596,-325.3421 279.4619,-322.2515 279.7465,-329.2457"/>
</g>
<!-- mux_431028651 -->
<g id="node11" class="node">
<title>mux_431028651</title>
<polygon fill="#afeeee" stroke="transparent" points="535,-210 535,-260 596,-260 596,-210 535,-210"/>
<polygon fill="none" stroke="#000000" points="535.5,-235 535.5,-260 554.5,-260 554.5,-235 535.5,-235"/>
<text text-anchor="start" x="541.5" y="-243.8" font-family="Times,serif" font-size="14.00" fill="#000000">1</text>
<polygon fill="none" stroke="#000000" points="554.5,-210 554.5,-260 577.5,-260 577.5,-210 554.5,-210"/>
<text text-anchor="start" x="559.5" y="-231.3" font-family="Times,serif" font-size="14.00" fill="#000000">a?</text>
<polygon fill="none" stroke="#000000" points="577.5,-210 577.5,-260 596.5,-260 596.5,-210 577.5,-210"/>
<text text-anchor="start" x="582.5" y="-231.3" font-family="Times,serif" font-size="14.00" fill="#000000">●</text>
<polygon fill="none" stroke="#000000" points="535.5,-210 535.5,-235 554.5,-235 554.5,-210 535.5,-210"/>
<text text-anchor="start" x="540.5" y="-218.8" font-family="Times,serif" font-size="14.00" fill="#000000">●</text>
</g>
<!-- mux_431028651&#45;&gt;cluster_ForwardingUnit_io_forwardA -->
<g id="edge22" class="edge">
<title>mux_431028651:out&#45;&gt;cluster_ForwardingUnit_io_forwardA</title>
<path fill="none" stroke="#000000" d="M596.5,-235C607.1975,-235 618.6392,-235 629.5826,-235"/>
<polygon fill="#000000" stroke="#000000" points="629.8816,-238.5001 639.8816,-235 629.8815,-231.5001 629.8816,-238.5001"/>
</g>
<!-- op_and_269&#45;&gt;mux_431028651 -->
<g id="edge8" class="edge">
<title>op_and_269:out&#45;&gt;mux_431028651:select</title>
<path fill="none" stroke="#000000" d="M474,-280C474,-262.5019 538.0355,-274.8352 559.5475,-267.3585"/>
<polygon fill="#000000" stroke="#000000" points="562.1763,-269.6725 566.5,-260 557.0882,-264.8651 562.1763,-269.6725"/>
</g>
<!-- mux_1560267016 -->
<g id="node13" class="node">
<title>mux_1560267016</title>
<polygon fill="#afeeee" stroke="transparent" points="415.5,-128 415.5,-178 474.5,-178 474.5,-128 415.5,-128"/>
<polygon fill="none" stroke="#000000" points="416,-153 416,-178 433,-178 433,-153 416,-153"/>
<text text-anchor="start" x="421" y="-161.8" font-family="Times,serif" font-size="14.00" fill="#000000">2</text>
<polygon fill="none" stroke="#000000" points="433,-128 433,-178 456,-178 456,-128 433,-128"/>
<text text-anchor="start" x="438" y="-149.3" font-family="Times,serif" font-size="14.00" fill="#000000">a?</text>
<polygon fill="none" stroke="#000000" points="456,-128 456,-178 475,-178 475,-128 456,-128"/>
<text text-anchor="start" x="461" y="-149.3" font-family="Times,serif" font-size="14.00" fill="#000000">●</text>
<polygon fill="none" stroke="#000000" points="416,-128 416,-153 433,-153 433,-128 416,-128"/>
<text text-anchor="start" x="421" y="-136.8" font-family="Times,serif" font-size="14.00" fill="#000000">0</text>
</g>
<!-- mux_1560267016&#45;&gt;mux_431028651 -->
<g id="edge9" class="edge">
<title>mux_1560267016:out&#45;&gt;mux_431028651:in2</title>
<path fill="none" stroke="#000000" d="M466,-178C466,-190.5236 480.2842,-184.5184 491,-191 508.2407,-201.4283 510.9099,-216.0843 525.4017,-220.6126"/>
<polygon fill="#000000" stroke="#000000" points="525.1167,-224.1063 535.5,-222 526.0695,-217.1714 525.1167,-224.1063"/>
</g>
<!-- op_and_270&#45;&gt;mux_1560267016 -->
<g id="edge23" class="edge">
<title>op_and_270:out&#45;&gt;mux_1560267016:select</title>
<path fill="none" stroke="#000000" d="M355,-152C380.6558,-152 382.4315,-133.4583 407.5,-128 418.0259,-125.7081 430.6679,-119.3065 437.9737,-120.0145"/>
<polygon fill="#000000" stroke="#000000" points="435.1825,-122.1262 444,-128 440.77,-117.9095 435.1825,-122.1262"/>
</g>
<!-- op_eq_271&#45;&gt;op_and_270 -->
<g id="edge1" class="edge">
<title>op_eq_271:out&#45;&gt;op_and_270:in1</title>
<path fill="none" stroke="#000000" d="M223.5,-175C244.8435,-175 251.9074,-167.7484 269.0116,-165.5956"/>
<polygon fill="#000000" stroke="#000000" points="269.2261,-169.0891 279,-165 268.8094,-162.1015 269.2261,-169.0891"/>
</g>
<!-- mux_1164230765 -->
<g id="node16" class="node">
<title>mux_1164230765</title>
<polygon fill="#afeeee" stroke="transparent" points="535,-134 535,-184 596,-184 596,-134 535,-134"/>
<polygon fill="none" stroke="#000000" points="535.5,-159 535.5,-184 554.5,-184 554.5,-159 535.5,-159"/>
<text text-anchor="start" x="541.5" y="-167.8" font-family="Times,serif" font-size="14.00" fill="#000000">1</text>
<polygon fill="none" stroke="#000000" points="554.5,-134 554.5,-184 577.5,-184 577.5,-134 554.5,-134"/>
<text text-anchor="start" x="559.5" y="-155.3" font-family="Times,serif" font-size="14.00" fill="#000000">a?</text>
<polygon fill="none" stroke="#000000" points="577.5,-134 577.5,-184 596.5,-184 596.5,-134 577.5,-134"/>
<text text-anchor="start" x="582.5" y="-155.3" font-family="Times,serif" font-size="14.00" fill="#000000">●</text>
<polygon fill="none" stroke="#000000" points="535.5,-134 535.5,-159 554.5,-159 554.5,-134 535.5,-134"/>
<text text-anchor="start" x="540.5" y="-142.8" font-family="Times,serif" font-size="14.00" fill="#000000">●</text>
</g>
<!-- mux_1164230765&#45;&gt;cluster_ForwardingUnit_io_forwardB -->
<g id="edge11" class="edge">
<title>mux_1164230765:out&#45;&gt;cluster_ForwardingUnit_io_forwardB</title>
<path fill="none" stroke="#000000" d="M596.5,-159C607.1975,-159 618.6392,-159 629.5826,-159"/>
<polygon fill="#000000" stroke="#000000" points="629.8816,-162.5001 639.8816,-159 629.8815,-155.5001 629.8816,-162.5001"/>
</g>
<!-- op_and_272&#45;&gt;mux_1164230765 -->
<g id="edge12" class="edge">
<title>op_and_272:out&#45;&gt;mux_1164230765:select</title>
<path fill="none" stroke="#000000" d="M474,-204C474,-186.5019 538.0355,-198.8352 559.5475,-191.3585"/>
<polygon fill="#000000" stroke="#000000" points="562.1763,-193.6725 566.5,-184 557.0882,-188.8651 562.1763,-193.6725"/>
</g>
<!-- op_eq_273&#45;&gt;op_and_272 -->
<g id="edge14" class="edge">
<title>op_eq_273:out&#45;&gt;op_and_272:in1</title>
<path fill="none" stroke="#000000" d="M223.5,-251C232.4309,-251 358.4104,-244.1094 396.6034,-242.3867"/>
<polygon fill="#000000" stroke="#000000" points="397.137,-245.8694 407,-242 396.8768,-238.8742 397.137,-245.8694"/>
</g>
<!-- mux_1887472089 -->
<g id="node19" class="node">
<title>mux_1887472089</title>
<polygon fill="#afeeee" stroke="transparent" points="415.5,-51 415.5,-101 474.5,-101 474.5,-51 415.5,-51"/>
<polygon fill="none" stroke="#000000" points="416,-76 416,-101 433,-101 433,-76 416,-76"/>
<text text-anchor="start" x="421" y="-84.8" font-family="Times,serif" font-size="14.00" fill="#000000">2</text>
<polygon fill="none" stroke="#000000" points="433,-51 433,-101 456,-101 456,-51 433,-51"/>
<text text-anchor="start" x="438" y="-72.3" font-family="Times,serif" font-size="14.00" fill="#000000">a?</text>
<polygon fill="none" stroke="#000000" points="456,-51 456,-101 475,-101 475,-51 456,-51"/>
<text text-anchor="start" x="461" y="-72.3" font-family="Times,serif" font-size="14.00" fill="#000000">●</text>
<polygon fill="none" stroke="#000000" points="416,-51 416,-76 433,-76 433,-51 416,-51"/>
<text text-anchor="start" x="421" y="-59.8" font-family="Times,serif" font-size="14.00" fill="#000000">0</text>
</g>
<!-- mux_1887472089&#45;&gt;mux_1164230765 -->
<g id="edge17" class="edge">
<title>mux_1887472089:out&#45;&gt;mux_1164230765:in2</title>
<path fill="none" stroke="#000000" d="M466,-101C466,-113.7347 480.2069,-108.2412 491,-115 508.0771,-125.694 510.8562,-140.1715 525.3885,-144.6341"/>
<polygon fill="#000000" stroke="#000000" points="525.1214,-148.1297 535.5,-146 526.0586,-141.1927 525.1214,-148.1297"/>
</g>
<!-- op_and_274&#45;&gt;mux_1887472089 -->
<g id="edge2" class="edge">
<title>op_and_274:out&#45;&gt;mux_1887472089:select</title>
<path fill="none" stroke="#000000" d="M355,-76C380.8438,-76 382.2916,-56.6956 407.5,-51 418.0077,-48.6259 430.6556,-42.2512 437.9676,-42.9867"/>
<polygon fill="#000000" stroke="#000000" points="435.1894,-45.1158 444,-51 440.7819,-40.9057 435.1894,-45.1158"/>
</g>
<!-- op_eq_275&#45;&gt;op_and_274 -->
<g id="edge5" class="edge">
<title>op_eq_275:out&#45;&gt;op_and_274:in1</title>
<path fill="none" stroke="#000000" d="M223.5,-45C251.1662,-45 248.7568,-78.989 269.1391,-87.2207"/>
<polygon fill="#000000" stroke="#000000" points="268.5374,-90.6685 279,-89 269.7805,-83.7798 268.5374,-90.6685"/>
</g>
</g>
</svg>
