<?xml version="1.0" encoding="UTF-8" standalone="no"?>
<?xml-stylesheet href="styles.css" type="text/css"?>
<!DOCTYPE svg PUBLIC "-//W3C//DTD SVG 1.1//EN"
 "http://www.w3.org/Graphics/SVG/1.1/DTD/svg11.dtd">
<!-- Generated by graphviz version 2.40.1 (20161225.0304)
 -->
<!-- Title: HazardUnit Pages: 1 -->
<svg width="1027pt" height="401pt"
 viewBox="0.00 0.00 1027.00 401.00" xmlns="http://www.w3.org/2000/svg" xmlns:xlink="http://www.w3.org/1999/xlink">
<g id="graph0" class="graph" transform="scale(1 1) rotate(0) translate(4 397)">
<title>HazardUnit</title>
<polygon fill="#ffffff" stroke="transparent" points="-4,4 -4,-397 1023,-397 1023,4 -4,4"/>
<g id="clust1" class="cluster">
<title>cluster_HazardUnit</title>
<polygon fill="#fff8dc" stroke="#000000" points="8,-8 8,-385 1011,-385 1011,-8 8,-8"/>
<text text-anchor="middle" x="509.5" y="-369.8" font-family="Times,serif" font-size="14.00" fill="#000000">HazardUnit</text>
</g>
<!-- cluster_HazardUnit_io_rs1 -->
<g id="node1" class="node">
<title>cluster_HazardUnit_io_rs1</title>
<polygon fill="#cccccc" stroke="#000000" points="80.5,-304 26.5,-304 26.5,-268 80.5,-268 80.5,-304"/>
<text text-anchor="middle" x="53.5" y="-282.3" font-family="Times,serif" font-size="14.00" fill="#000000">io_rs1</text>
</g>
<!-- op_eq_352 -->
<g id="node12" class="node">
<title>op_eq_352</title>
<polygon fill="#d8bfd8" stroke="transparent" points="135,-248 135,-298 204,-298 204,-248 135,-248"/>
<polygon fill="none" stroke="#000000" points="135.5,-273 135.5,-298 154.5,-298 154.5,-273 135.5,-273"/>
<text text-anchor="start" x="140.5" y="-281.8" font-family="Times,serif" font-size="14.00" fill="#000000">●</text>
<polygon fill="none" stroke="#000000" points="154.5,-248 154.5,-298 185.5,-298 185.5,-248 154.5,-248"/>
<text text-anchor="start" x="159.5" y="-269.3" font-family="Times,serif" font-size="14.00" fill="#000000"> eq </text>
<polygon fill="none" stroke="#000000" points="185.5,-248 185.5,-298 204.5,-298 204.5,-248 185.5,-248"/>
<text text-anchor="start" x="190.5" y="-269.3" font-family="Times,serif" font-size="14.00" fill="#000000">●</text>
<polygon fill="none" stroke="#000000" points="135.5,-248 135.5,-273 154.5,-273 154.5,-248 135.5,-248"/>
<text text-anchor="start" x="140.5" y="-256.8" font-family="Times,serif" font-size="14.00" fill="#000000">●</text>
</g>
<!-- cluster_HazardUnit_io_rs1&#45;&gt;op_eq_352 -->
<g id="edge16" class="edge">
<title>cluster_HazardUnit_io_rs1&#45;&gt;op_eq_352:in1</title>
<path fill="none" stroke="#000000" d="M80.8333,-286C93.9128,-286 110.0577,-286 125.4961,-286"/>
<polygon fill="#000000" stroke="#000000" points="125.5,-289.5001 135.5,-286 125.5,-282.5001 125.5,-289.5001"/>
</g>
<!-- cluster_HazardUnit_io_rs2 -->
<g id="node2" class="node">
<title>cluster_HazardUnit_io_rs2</title>
<polygon fill="#cccccc" stroke="#000000" points="80.5,-180 26.5,-180 26.5,-144 80.5,-144 80.5,-180"/>
<text text-anchor="middle" x="53.5" y="-158.3" font-family="Times,serif" font-size="14.00" fill="#000000">io_rs2</text>
</g>
<!-- op_eq_355 -->
<g id="node17" class="node">
<title>op_eq_355</title>
<polygon fill="#d8bfd8" stroke="transparent" points="135,-172 135,-222 204,-222 204,-172 135,-172"/>
<polygon fill="none" stroke="#000000" points="135.5,-197 135.5,-222 154.5,-222 154.5,-197 135.5,-197"/>
<text text-anchor="start" x="140.5" y="-205.8" font-family="Times,serif" font-size="14.00" fill="#000000">●</text>
<polygon fill="none" stroke="#000000" points="154.5,-172 154.5,-222 185.5,-222 185.5,-172 154.5,-172"/>
<text text-anchor="start" x="159.5" y="-193.3" font-family="Times,serif" font-size="14.00" fill="#000000"> eq </text>
<polygon fill="none" stroke="#000000" points="185.5,-172 185.5,-222 204.5,-222 204.5,-172 185.5,-172"/>
<text text-anchor="start" x="190.5" y="-193.3" font-family="Times,serif" font-size="14.00" fill="#000000">●</text>
<polygon fill="none" stroke="#000000" points="135.5,-172 135.5,-197 154.5,-197 154.5,-172 135.5,-172"/>
<text text-anchor="start" x="140.5" y="-180.8" font-family="Times,serif" font-size="14.00" fill="#000000">●</text>
</g>
<!-- cluster_HazardUnit_io_rs2&#45;&gt;op_eq_355 -->
<g id="edge8" class="edge">
<title>cluster_HazardUnit_io_rs2&#45;&gt;op_eq_355:in1</title>
<path fill="none" stroke="#000000" d="M71.6191,-180.1467C85.0485,-191.8811 104.5813,-205.6036 125.4844,-209.1365"/>
<polygon fill="#000000" stroke="#000000" points="125.2363,-212.6281 135.5,-210 125.8376,-205.6539 125.2363,-212.6281"/>
</g>
<!-- op_eq_358 -->
<g id="node21" class="node">
<title>op_eq_358</title>
<polygon fill="#d8bfd8" stroke="transparent" points="135,-96 135,-146 204,-146 204,-96 135,-96"/>
<polygon fill="none" stroke="#000000" points="135.5,-121 135.5,-146 154.5,-146 154.5,-121 135.5,-121"/>
<text text-anchor="start" x="140.5" y="-129.8" font-family="Times,serif" font-size="14.00" fill="#000000">●</text>
<polygon fill="none" stroke="#000000" points="154.5,-96 154.5,-146 185.5,-146 185.5,-96 154.5,-96"/>
<text text-anchor="start" x="159.5" y="-117.3" font-family="Times,serif" font-size="14.00" fill="#000000"> eq </text>
<polygon fill="none" stroke="#000000" points="185.5,-96 185.5,-146 204.5,-146 204.5,-96 185.5,-96"/>
<text text-anchor="start" x="190.5" y="-117.3" font-family="Times,serif" font-size="14.00" fill="#000000">●</text>
<polygon fill="none" stroke="#000000" points="135.5,-96 135.5,-121 154.5,-121 154.5,-96 135.5,-96"/>
<text text-anchor="start" x="140.5" y="-104.8" font-family="Times,serif" font-size="14.00" fill="#000000">●</text>
</g>
<!-- cluster_HazardUnit_io_rs2&#45;&gt;op_eq_358 -->
<g id="edge32" class="edge">
<title>cluster_HazardUnit_io_rs2&#45;&gt;op_eq_358:in1</title>
<path fill="none" stroke="#000000" d="M80.7973,-147.6719C93.5841,-142.0208 109.448,-136.441 125.1991,-134.6183"/>
<polygon fill="#000000" stroke="#000000" points="125.7277,-138.0929 135.5,-134 125.3082,-131.1055 125.7277,-138.0929"/>
</g>
<!-- op_eq_362 -->
<g id="node25" class="node">
<title>op_eq_362</title>
<polygon fill="#d8bfd8" stroke="transparent" points="135,-20 135,-70 204,-70 204,-20 135,-20"/>
<polygon fill="none" stroke="#000000" points="135.5,-45 135.5,-70 154.5,-70 154.5,-45 135.5,-45"/>
<text text-anchor="start" x="140.5" y="-53.8" font-family="Times,serif" font-size="14.00" fill="#000000">●</text>
<polygon fill="none" stroke="#000000" points="154.5,-20 154.5,-70 185.5,-70 185.5,-20 154.5,-20"/>
<text text-anchor="start" x="159.5" y="-41.3" font-family="Times,serif" font-size="14.00" fill="#000000"> eq </text>
<polygon fill="none" stroke="#000000" points="185.5,-20 185.5,-70 204.5,-70 204.5,-20 185.5,-20"/>
<text text-anchor="start" x="190.5" y="-41.3" font-family="Times,serif" font-size="14.00" fill="#000000">●</text>
<polygon fill="none" stroke="#000000" points="135.5,-20 135.5,-45 154.5,-45 154.5,-20 135.5,-20"/>
<text text-anchor="start" x="140.5" y="-28.8" font-family="Times,serif" font-size="14.00" fill="#000000">●</text>
</g>
<!-- cluster_HazardUnit_io_rs2&#45;&gt;op_eq_362 -->
<g id="edge21" class="edge">
<title>cluster_HazardUnit_io_rs2&#45;&gt;op_eq_362:in1</title>
<path fill="none" stroke="#000000" d="M80.6391,-144.1809C84.2881,-141.3012 87.8528,-138.2059 91,-135 110.6917,-114.9411 107.4582,-103.205 127,-83 130.2627,-79.6266 134.4705,-78.7443 137.9423,-77.6303"/>
<polygon fill="#000000" stroke="#000000" points="140.6365,-79.8653 144.5,-70 135.3277,-75.3028 140.6365,-79.8653"/>
</g>
<!-- cluster_HazardUnit_io_idex_memread -->
<g id="node3" class="node">
<title>cluster_HazardUnit_io_idex_memread</title>
<polygon fill="#cccccc" stroke="#000000" points="454,-207 338,-207 338,-171 454,-171 454,-207"/>
<text text-anchor="middle" x="396" y="-185.3" font-family="Times,serif" font-size="14.00" fill="#000000">io_idex_memread</text>
</g>
<!-- op_and_353 -->
<g id="node15" class="node">
<title>op_and_353</title>
<polygon fill="#d8bfd8" stroke="transparent" points="507.5,-242 507.5,-292 583.5,-292 583.5,-242 507.5,-242"/>
<polygon fill="none" stroke="#000000" points="507.5,-267 507.5,-292 526.5,-292 526.5,-267 507.5,-267"/>
<text text-anchor="start" x="512.5" y="-275.8" font-family="Times,serif" font-size="14.00" fill="#000000">●</text>
<polygon fill="none" stroke="#000000" points="526.5,-242 526.5,-292 564.5,-292 564.5,-242 526.5,-242"/>
<text text-anchor="start" x="531.5" y="-263.3" font-family="Times,serif" font-size="14.00" fill="#000000"> and </text>
<polygon fill="none" stroke="#000000" points="564.5,-242 564.5,-292 583.5,-292 583.5,-242 564.5,-242"/>
<text text-anchor="start" x="569.5" y="-263.3" font-family="Times,serif" font-size="14.00" fill="#000000">●</text>
<polygon fill="none" stroke="#000000" points="507.5,-242 507.5,-267 526.5,-267 526.5,-242 507.5,-242"/>
<text text-anchor="start" x="512.5" y="-250.8" font-family="Times,serif" font-size="14.00" fill="#000000">●</text>
</g>
<!-- cluster_HazardUnit_io_idex_memread&#45;&gt;op_and_353 -->
<g id="edge2" class="edge">
<title>cluster_HazardUnit_io_idex_memread&#45;&gt;op_and_353:in1</title>
<path fill="none" stroke="#000000" d="M440.2746,-207.0756C445.0909,-209.7726 449.7723,-212.7519 454,-216 480.2983,-236.2047 472.6913,-271.4738 497.3313,-278.6887"/>
<polygon fill="#000000" stroke="#000000" points="497.1345,-282.1922 507.5,-280 498.0298,-275.2497 497.1345,-282.1922"/>
</g>
<!-- op_and_356 -->
<g id="node19" class="node">
<title>op_and_356</title>
<polygon fill="#d8bfd8" stroke="transparent" points="507.5,-112 507.5,-162 583.5,-162 583.5,-112 507.5,-112"/>
<polygon fill="none" stroke="#000000" points="507.5,-137 507.5,-162 526.5,-162 526.5,-137 507.5,-137"/>
<text text-anchor="start" x="512.5" y="-145.8" font-family="Times,serif" font-size="14.00" fill="#000000">●</text>
<polygon fill="none" stroke="#000000" points="526.5,-112 526.5,-162 564.5,-162 564.5,-112 526.5,-112"/>
<text text-anchor="start" x="531.5" y="-133.3" font-family="Times,serif" font-size="14.00" fill="#000000"> and </text>
<polygon fill="none" stroke="#000000" points="564.5,-112 564.5,-162 583.5,-162 583.5,-112 564.5,-112"/>
<text text-anchor="start" x="569.5" y="-133.3" font-family="Times,serif" font-size="14.00" fill="#000000">●</text>
<polygon fill="none" stroke="#000000" points="507.5,-112 507.5,-137 526.5,-137 526.5,-112 507.5,-112"/>
<text text-anchor="start" x="512.5" y="-120.8" font-family="Times,serif" font-size="14.00" fill="#000000">●</text>
</g>
<!-- cluster_HazardUnit_io_idex_memread&#45;&gt;op_and_356 -->
<g id="edge33" class="edge">
<title>cluster_HazardUnit_io_idex_memread&#45;&gt;op_and_356:in1</title>
<path fill="none" stroke="#000000" d="M438.1874,-170.9841C458.4628,-162.8411 481.6808,-154.3509 497.2553,-151.2377"/>
<polygon fill="#000000" stroke="#000000" points="497.992,-154.6743 507.5,-150 497.1524,-147.7248 497.992,-154.6743"/>
</g>
<!-- op_and_360 -->
<g id="node23" class="node">
<title>op_and_360</title>
<polygon fill="#d8bfd8" stroke="transparent" points="507.5,-36 507.5,-86 583.5,-86 583.5,-36 507.5,-36"/>
<polygon fill="none" stroke="#000000" points="507.5,-61 507.5,-86 526.5,-86 526.5,-61 507.5,-61"/>
<text text-anchor="start" x="512.5" y="-69.8" font-family="Times,serif" font-size="14.00" fill="#000000">●</text>
<polygon fill="none" stroke="#000000" points="526.5,-36 526.5,-86 564.5,-86 564.5,-36 526.5,-36"/>
<text text-anchor="start" x="531.5" y="-57.3" font-family="Times,serif" font-size="14.00" fill="#000000"> and </text>
<polygon fill="none" stroke="#000000" points="564.5,-36 564.5,-86 583.5,-86 583.5,-36 564.5,-36"/>
<text text-anchor="start" x="569.5" y="-57.3" font-family="Times,serif" font-size="14.00" fill="#000000">●</text>
<polygon fill="none" stroke="#000000" points="507.5,-36 507.5,-61 526.5,-61 526.5,-36 507.5,-36"/>
<text text-anchor="start" x="512.5" y="-44.8" font-family="Times,serif" font-size="14.00" fill="#000000">●</text>
</g>
<!-- cluster_HazardUnit_io_idex_memread&#45;&gt;op_and_360 -->
<g id="edge18" class="edge">
<title>cluster_HazardUnit_io_idex_memread&#45;&gt;op_and_360:in1</title>
<path fill="none" stroke="#000000" d="M442.0488,-170.9255C446.3293,-168.2773 450.4031,-165.3085 454,-162 477.735,-140.1677 466.4888,-121.0731 490,-99 495.6787,-93.6686 503.9562,-94.7101 509.7445,-93.6902"/>
<polygon fill="#000000" stroke="#000000" points="512.5297,-95.8228 516.5,-86 507.2707,-91.203 512.5297,-95.8228"/>
</g>
<!-- cluster_HazardUnit_io_idex_rd -->
<g id="node4" class="node">
<title>cluster_HazardUnit_io_idex_rd</title>
<polygon fill="#cccccc" stroke="#000000" points="91,-126 16,-126 16,-90 91,-90 91,-126"/>
<text text-anchor="middle" x="53.5" y="-104.3" font-family="Times,serif" font-size="14.00" fill="#000000">io_idex_rd</text>
</g>
<!-- cluster_HazardUnit_io_idex_rd&#45;&gt;op_eq_352 -->
<g id="edge5" class="edge">
<title>cluster_HazardUnit_io_idex_rd&#45;&gt;op_eq_352:in2</title>
<path fill="none" stroke="#000000" d="M82.5755,-126.0913C85.6825,-128.816 88.5848,-131.7975 91,-135 119.4426,-172.7138 98.839,-197.0755 127,-235 129.7979,-238.7679 133.9911,-239.6625 137.5716,-240.6843"/>
<polygon fill="#000000" stroke="#000000" points="135.0825,-243.1461 144.5,-248 140.1649,-238.3326 135.0825,-243.1461"/>
</g>
<!-- cluster_HazardUnit_io_idex_rd&#45;&gt;op_eq_355 -->
<g id="edge28" class="edge">
<title>cluster_HazardUnit_io_idex_rd&#45;&gt;op_eq_355:in2</title>
<path fill="none" stroke="#000000" d="M79.821,-126.1339C98.928,-139.3368 123.5581,-156.4457 136.2008,-165.5914"/>
<polygon fill="#000000" stroke="#000000" points="134.4459,-168.6583 144.5,-172 138.7243,-163.1179 134.4459,-168.6583"/>
</g>
<!-- cluster_HazardUnit_io_idex_rd&#45;&gt;op_eq_358 -->
<g id="edge19" class="edge">
<title>cluster_HazardUnit_io_idex_rd&#45;&gt;op_eq_358:in2</title>
<path fill="none" stroke="#000000" d="M91.0561,-108C101.8501,-108 113.8473,-108 125.4478,-108"/>
<polygon fill="#000000" stroke="#000000" points="125.5,-111.5001 135.5,-108 125.5,-104.5001 125.5,-111.5001"/>
</g>
<!-- cluster_HazardUnit_io_idex_rd&#45;&gt;op_eq_362 -->
<g id="edge11" class="edge">
<title>cluster_HazardUnit_io_idex_rd&#45;&gt;op_eq_362:in2</title>
<path fill="none" stroke="#000000" d="M62.7309,-89.9891C74.3702,-69.7974 96.415,-39.0794 125.4067,-33.0481"/>
<polygon fill="#000000" stroke="#000000" points="125.915,-36.5143 135.5,-32 125.1919,-29.5517 125.915,-36.5143"/>
</g>
<!-- cluster_HazardUnit_io_exmem_taken -->
<g id="node5" class="node">
<title>cluster_HazardUnit_io_exmem_taken</title>
<polygon fill="#cccccc" stroke="#000000" points="601,-220 490,-220 490,-184 601,-184 601,-220"/>
<text text-anchor="middle" x="545.5" y="-198.3" font-family="Times,serif" font-size="14.00" fill="#000000">io_exmem_taken</text>
</g>
<!-- cluster_HazardUnit_io_exmem_bubble -->
<g id="node9" class="node">
<title>cluster_HazardUnit_io_exmem_bubble</title>
<polygon fill="#e0ffff" stroke="#000000" points="756,-224 637,-224 637,-188 756,-188 756,-224"/>
<text text-anchor="middle" x="696.5" y="-202.3" font-family="Times,serif" font-size="14.00" fill="#000000">io_exmem_bubble</text>
</g>
<!-- cluster_HazardUnit_io_exmem_taken&#45;&gt;cluster_HazardUnit_io_exmem_bubble -->
<g id="edge24" class="edge">
<title>cluster_HazardUnit_io_exmem_taken&#45;&gt;cluster_HazardUnit_io_exmem_bubble</title>
<path fill="none" stroke="#000000" d="M601.2978,-203.4781C609.5402,-203.6964 618.1194,-203.9237 626.6038,-204.1484"/>
<polygon fill="#000000" stroke="#000000" points="626.7875,-207.6544 636.8767,-204.4206 626.9729,-200.6569 626.7875,-207.6544"/>
</g>
<!-- cluster_HazardUnit_io_ifid_flush -->
<g id="node10" class="node">
<title>cluster_HazardUnit_io_ifid_flush</title>
<polygon fill="#e0ffff" stroke="#000000" points="739.5,-278 653.5,-278 653.5,-242 739.5,-242 739.5,-278"/>
<text text-anchor="middle" x="696.5" y="-256.3" font-family="Times,serif" font-size="14.00" fill="#000000">io_ifid_flush</text>
</g>
<!-- cluster_HazardUnit_io_exmem_taken&#45;&gt;cluster_HazardUnit_io_ifid_flush -->
<g id="edge26" class="edge">
<title>cluster_HazardUnit_io_exmem_taken&#45;&gt;cluster_HazardUnit_io_ifid_flush</title>
<path fill="none" stroke="#000000" d="M592.4496,-220.0336C608.7332,-226.2882 627.0946,-233.341 643.8098,-239.7614"/>
<polygon fill="#000000" stroke="#000000" points="642.8431,-243.1393 653.4331,-243.4578 645.3531,-236.6048 642.8431,-243.1393"/>
</g>
<!-- mux_294664241 -->
<g id="node13" class="node">
<title>mux_294664241</title>
<polygon fill="#afeeee" stroke="transparent" points="812,-230 812,-280 873,-280 873,-230 812,-230"/>
<polygon fill="none" stroke="#000000" points="812.5,-255 812.5,-280 831.5,-280 831.5,-255 812.5,-255"/>
<text text-anchor="start" x="818.5" y="-263.8" font-family="Times,serif" font-size="14.00" fill="#000000">1</text>
<polygon fill="none" stroke="#000000" points="831.5,-230 831.5,-280 854.5,-280 854.5,-230 831.5,-230"/>
<text text-anchor="start" x="836.5" y="-251.3" font-family="Times,serif" font-size="14.00" fill="#000000">a?</text>
<polygon fill="none" stroke="#000000" points="854.5,-230 854.5,-280 873.5,-280 873.5,-230 854.5,-230"/>
<text text-anchor="start" x="859.5" y="-251.3" font-family="Times,serif" font-size="14.00" fill="#000000">●</text>
<polygon fill="none" stroke="#000000" points="812.5,-230 812.5,-255 831.5,-255 831.5,-230 812.5,-230"/>
<text text-anchor="start" x="817.5" y="-238.8" font-family="Times,serif" font-size="14.00" fill="#000000">●</text>
</g>
<!-- cluster_HazardUnit_io_exmem_taken&#45;&gt;mux_294664241 -->
<g id="edge4" class="edge">
<title>cluster_HazardUnit_io_exmem_taken&#45;&gt;mux_294664241:select</title>
<path fill="none" stroke="#000000" d="M601.2019,-185.1763C684.2532,-162.9852 832.0146,-135.8367 842.8669,-219.7915"/>
<polygon fill="#000000" stroke="#000000" points="839.3876,-220.2359 843.5,-230 846.3742,-219.8025 839.3876,-220.2359"/>
</g>
<!-- mux_1544074364 -->
<g id="node18" class="node">
<title>mux_1544074364</title>
<polygon fill="#afeeee" stroke="transparent" points="666,-96 666,-146 727,-146 727,-96 666,-96"/>
<polygon fill="none" stroke="#000000" points="666.5,-121 666.5,-146 685.5,-146 685.5,-121 666.5,-121"/>
<text text-anchor="start" x="672.5" y="-129.8" font-family="Times,serif" font-size="14.00" fill="#000000">0</text>
<polygon fill="none" stroke="#000000" points="685.5,-96 685.5,-146 708.5,-146 708.5,-96 685.5,-96"/>
<text text-anchor="start" x="690.5" y="-117.3" font-family="Times,serif" font-size="14.00" fill="#000000">a?</text>
<polygon fill="none" stroke="#000000" points="708.5,-96 708.5,-146 727.5,-146 727.5,-96 708.5,-96"/>
<text text-anchor="start" x="713.5" y="-117.3" font-family="Times,serif" font-size="14.00" fill="#000000">●</text>
<polygon fill="none" stroke="#000000" points="666.5,-96 666.5,-121 685.5,-121 685.5,-96 666.5,-96"/>
<text text-anchor="start" x="671.5" y="-104.8" font-family="Times,serif" font-size="14.00" fill="#000000">●</text>
</g>
<!-- cluster_HazardUnit_io_exmem_taken&#45;&gt;mux_1544074364 -->
<g id="edge12" class="edge">
<title>cluster_HazardUnit_io_exmem_taken&#45;&gt;mux_1544074364:select</title>
<path fill="none" stroke="#000000" d="M586.5935,-183.8608C602.2329,-177.2418 620.3056,-169.9318 637,-164 659.3042,-156.0749 687.0409,-168.6808 695.164,-155.9624"/>
<polygon fill="#000000" stroke="#000000" points="698.6246,-156.535 697.5,-146 691.8095,-154.9369 698.6246,-156.535"/>
</g>
<!-- op_or_359 -->
<g id="node22" class="node">
<title>op_or_359</title>
<polygon fill="#d8bfd8" stroke="transparent" points="663,-20 663,-70 730,-70 730,-20 663,-20"/>
<polygon fill="none" stroke="#000000" points="663.5,-45 663.5,-70 682.5,-70 682.5,-45 663.5,-45"/>
<text text-anchor="start" x="668.5" y="-53.8" font-family="Times,serif" font-size="14.00" fill="#000000">●</text>
<polygon fill="none" stroke="#000000" points="682.5,-20 682.5,-70 711.5,-70 711.5,-20 682.5,-20"/>
<text text-anchor="start" x="687.5" y="-41.3" font-family="Times,serif" font-size="14.00" fill="#000000"> or </text>
<polygon fill="none" stroke="#000000" points="711.5,-20 711.5,-70 730.5,-70 730.5,-20 711.5,-20"/>
<text text-anchor="start" x="716.5" y="-41.3" font-family="Times,serif" font-size="14.00" fill="#000000">●</text>
<polygon fill="none" stroke="#000000" points="663.5,-20 663.5,-45 682.5,-45 682.5,-20 663.5,-20"/>
<text text-anchor="start" x="668.5" y="-28.8" font-family="Times,serif" font-size="14.00" fill="#000000">●</text>
</g>
<!-- cluster_HazardUnit_io_exmem_taken&#45;&gt;op_or_359 -->
<g id="edge10" class="edge">
<title>cluster_HazardUnit_io_exmem_taken&#45;&gt;op_or_359:in1</title>
<path fill="none" stroke="#000000" d="M590.6088,-183.8737C594.4023,-181.255 597.9472,-178.3066 601,-175 630.7845,-142.7388 605.6135,-113.7048 637,-83 645.1636,-75.0137 658.6299,-79.6404 666.4192,-78.1478"/>
<polygon fill="#000000" stroke="#000000" points="669.3239,-80.1076 672.5,-70 663.7139,-75.9208 669.3239,-80.1076"/>
</g>
<!-- cluster_HazardUnit_io_pcwrite -->
<g id="node6" class="node">
<title>cluster_HazardUnit_io_pcwrite</title>
<polygon fill="#e0ffff" stroke="#000000" points="1003,-273 929,-273 929,-237 1003,-237 1003,-273"/>
<text text-anchor="middle" x="966" y="-251.3" font-family="Times,serif" font-size="14.00" fill="#000000">io_pcwrite</text>
</g>
<!-- cluster_HazardUnit_io_ifid_bubble -->
<g id="node7" class="node">
<title>cluster_HazardUnit_io_ifid_bubble</title>
<polygon fill="#e0ffff" stroke="#000000" points="890.5,-139 794.5,-139 794.5,-103 890.5,-103 890.5,-139"/>
<text text-anchor="middle" x="842.5" y="-117.3" font-family="Times,serif" font-size="14.00" fill="#000000">io_ifid_bubble</text>
</g>
<!-- cluster_HazardUnit_io_idex_bubble -->
<g id="node8" class="node">
<title>cluster_HazardUnit_io_idex_bubble</title>
<polygon fill="#e0ffff" stroke="#000000" points="893,-63 792,-63 792,-27 893,-27 893,-63"/>
<text text-anchor="middle" x="842.5" y="-41.3" font-family="Times,serif" font-size="14.00" fill="#000000">io_idex_bubble</text>
</g>
<!-- cluster_HazardUnit__T -->
<g id="node11" class="node">
<title>cluster_HazardUnit__T</title>
<polygon fill="none" stroke="#000000" points="302,-276 248,-276 248,-240 302,-240 302,-276"/>
<text text-anchor="middle" x="275" y="-254.3" font-family="Times,serif" font-size="14.00" fill="#000000">_T</text>
</g>
<!-- op_or_354 -->
<g id="node16" class="node">
<title>op_or_354</title>
<polygon fill="#d8bfd8" stroke="transparent" points="362.5,-229 362.5,-279 429.5,-279 429.5,-229 362.5,-229"/>
<polygon fill="none" stroke="#000000" points="363,-254 363,-279 382,-279 382,-254 363,-254"/>
<text text-anchor="start" x="368" y="-262.8" font-family="Times,serif" font-size="14.00" fill="#000000">●</text>
<polygon fill="none" stroke="#000000" points="382,-229 382,-279 411,-279 411,-229 382,-229"/>
<text text-anchor="start" x="387" y="-250.3" font-family="Times,serif" font-size="14.00" fill="#000000"> or </text>
<polygon fill="none" stroke="#000000" points="411,-229 411,-279 430,-279 430,-229 411,-229"/>
<text text-anchor="start" x="416" y="-250.3" font-family="Times,serif" font-size="14.00" fill="#000000">●</text>
<polygon fill="none" stroke="#000000" points="363,-229 363,-254 382,-254 382,-229 363,-229"/>
<text text-anchor="start" x="368" y="-237.8" font-family="Times,serif" font-size="14.00" fill="#000000">●</text>
</g>
<!-- cluster_HazardUnit__T&#45;&gt;op_or_354 -->
<g id="edge1" class="edge">
<title>cluster_HazardUnit__T&#45;&gt;op_or_354:in1</title>
<path fill="none" stroke="#000000" d="M302.2775,-262.2365C316.7748,-264.1878 335.1937,-266.2055 352.7786,-266.815"/>
<polygon fill="#000000" stroke="#000000" points="352.9383,-270.3184 363,-267 353.065,-263.3195 352.9383,-270.3184"/>
</g>
<!-- op_or_357 -->
<g id="node20" class="node">
<title>op_or_357</title>
<polygon fill="#d8bfd8" stroke="transparent" points="362.5,-99 362.5,-149 429.5,-149 429.5,-99 362.5,-99"/>
<polygon fill="none" stroke="#000000" points="363,-124 363,-149 382,-149 382,-124 363,-124"/>
<text text-anchor="start" x="368" y="-132.8" font-family="Times,serif" font-size="14.00" fill="#000000">●</text>
<polygon fill="none" stroke="#000000" points="382,-99 382,-149 411,-149 411,-99 382,-99"/>
<text text-anchor="start" x="387" y="-120.3" font-family="Times,serif" font-size="14.00" fill="#000000"> or </text>
<polygon fill="none" stroke="#000000" points="411,-99 411,-149 430,-149 430,-99 411,-99"/>
<text text-anchor="start" x="416" y="-120.3" font-family="Times,serif" font-size="14.00" fill="#000000">●</text>
<polygon fill="none" stroke="#000000" points="363,-99 363,-124 382,-124 382,-99 363,-99"/>
<text text-anchor="start" x="368" y="-107.8" font-family="Times,serif" font-size="14.00" fill="#000000">●</text>
</g>
<!-- cluster_HazardUnit__T&#45;&gt;op_or_357 -->
<g id="edge27" class="edge">
<title>cluster_HazardUnit__T&#45;&gt;op_or_357:in1</title>
<path fill="none" stroke="#000000" d="M282.6137,-239.9705C292.4793,-218.6092 311.5977,-183.2468 338,-162 346.4681,-155.1854 358.9054,-158.9625 366.1556,-157.2683"/>
<polygon fill="#000000" stroke="#000000" points="369.0859,-159.1862 372,-149 363.3698,-155.1457 369.0859,-159.1862"/>
</g>
<!-- op_or_361 -->
<g id="node24" class="node">
<title>op_or_361</title>
<polygon fill="#d8bfd8" stroke="transparent" points="362.5,-23 362.5,-73 429.5,-73 429.5,-23 362.5,-23"/>
<polygon fill="none" stroke="#000000" points="363,-48 363,-73 382,-73 382,-48 363,-48"/>
<text text-anchor="start" x="368" y="-56.8" font-family="Times,serif" font-size="14.00" fill="#000000">●</text>
<polygon fill="none" stroke="#000000" points="382,-23 382,-73 411,-73 411,-23 382,-23"/>
<text text-anchor="start" x="387" y="-44.3" font-family="Times,serif" font-size="14.00" fill="#000000"> or </text>
<polygon fill="none" stroke="#000000" points="411,-23 411,-73 430,-73 430,-23 411,-23"/>
<text text-anchor="start" x="416" y="-44.3" font-family="Times,serif" font-size="14.00" fill="#000000">●</text>
<polygon fill="none" stroke="#000000" points="363,-23 363,-48 382,-48 382,-23 363,-23"/>
<text text-anchor="start" x="368" y="-31.8" font-family="Times,serif" font-size="14.00" fill="#000000">●</text>
</g>
<!-- cluster_HazardUnit__T&#45;&gt;op_or_361 -->
<g id="edge13" class="edge">
<title>cluster_HazardUnit__T&#45;&gt;op_or_361:in1</title>
<path fill="none" stroke="#000000" d="M276.739,-239.8174C280.9828,-205.2712 294.9074,-129.7044 338,-86 345.6316,-78.26 358.3564,-82.3553 365.8854,-80.9694"/>
<polygon fill="#000000" stroke="#000000" points="368.6895,-83.0644 372,-73 363.1358,-78.8032 368.6895,-83.0644"/>
</g>
<!-- op_eq_352&#45;&gt;cluster_HazardUnit__T -->
<g id="edge17" class="edge">
<title>op_eq_352:out&#45;&gt;cluster_HazardUnit__T</title>
<path fill="none" stroke="#000000" d="M204.5,-273C215.5002,-273 227.2586,-271.2313 237.9575,-268.9086"/>
<polygon fill="#000000" stroke="#000000" points="238.9172,-272.2779 247.8312,-266.5516 237.2918,-265.4693 238.9172,-272.2779"/>
</g>
<!-- mux_294664241&#45;&gt;cluster_HazardUnit_io_pcwrite -->
<g id="edge14" class="edge">
<title>mux_294664241:out&#45;&gt;cluster_HazardUnit_io_pcwrite</title>
<path fill="none" stroke="#000000" d="M873.5,-255C888.1024,-255 904.0015,-255 918.4339,-255"/>
<polygon fill="#000000" stroke="#000000" points="918.6441,-258.5001 928.6441,-255 918.6441,-251.5001 918.6441,-258.5001"/>
</g>
<!-- mux_1394538381 -->
<g id="node14" class="node">
<title>mux_1394538381</title>
<polygon fill="#afeeee" stroke="transparent" points="667,-300 667,-350 726,-350 726,-300 667,-300"/>
<polygon fill="none" stroke="#000000" points="667.5,-325 667.5,-350 684.5,-350 684.5,-325 667.5,-325"/>
<text text-anchor="start" x="672.5" y="-333.8" font-family="Times,serif" font-size="14.00" fill="#000000">2</text>
<polygon fill="none" stroke="#000000" points="684.5,-300 684.5,-350 707.5,-350 707.5,-300 684.5,-300"/>
<text text-anchor="start" x="689.5" y="-321.3" font-family="Times,serif" font-size="14.00" fill="#000000">a?</text>
<polygon fill="none" stroke="#000000" points="707.5,-300 707.5,-350 726.5,-350 726.5,-300 707.5,-300"/>
<text text-anchor="start" x="712.5" y="-321.3" font-family="Times,serif" font-size="14.00" fill="#000000">●</text>
<polygon fill="none" stroke="#000000" points="667.5,-300 667.5,-325 684.5,-325 684.5,-300 667.5,-300"/>
<text text-anchor="start" x="672.5" y="-308.8" font-family="Times,serif" font-size="14.00" fill="#000000">0</text>
</g>
<!-- mux_1394538381&#45;&gt;mux_294664241 -->
<g id="edge9" class="edge">
<title>mux_1394538381:out&#45;&gt;mux_294664241:in2</title>
<path fill="none" stroke="#000000" d="M717.5,-300C717.5,-281.9397 740.1429,-295.6444 756,-287 780.7731,-273.495 780.8462,-248.9678 802.2962,-243.2257"/>
<polygon fill="#000000" stroke="#000000" points="802.9888,-246.6677 812.5,-242 802.1539,-239.7177 802.9888,-246.6677"/>
</g>
<!-- op_and_353&#45;&gt;mux_1394538381 -->
<g id="edge25" class="edge">
<title>op_and_353:out&#45;&gt;mux_1394538381:select</title>
<path fill="none" stroke="#000000" d="M583.5,-267C608.8849,-267 612.6621,-279.7847 637,-287 646.5759,-289.8389 674.6942,-288.2411 688.1549,-292.8829"/>
<polygon fill="#000000" stroke="#000000" points="685.8827,-295.5548 695.5,-300 690.7539,-290.5277 685.8827,-295.5548"/>
</g>
<!-- op_or_354&#45;&gt;op_and_353 -->
<g id="edge30" class="edge">
<title>op_or_354:out&#45;&gt;op_and_353:in2</title>
<path fill="none" stroke="#000000" d="M430,-254C460.8116,-254 470.9518,-254 497.403,-254"/>
<polygon fill="#000000" stroke="#000000" points="497.5,-257.5001 507.5,-254 497.5,-250.5001 497.5,-257.5001"/>
</g>
<!-- op_eq_355&#45;&gt;op_or_354 -->
<g id="edge22" class="edge">
<title>op_eq_355:out&#45;&gt;op_or_354:in2</title>
<path fill="none" stroke="#000000" d="M204.5,-197C274.0387,-197 288.547,-236.808 352.7117,-240.6955"/>
<polygon fill="#000000" stroke="#000000" points="352.9008,-244.2026 363,-241 353.1079,-237.2056 352.9008,-244.2026"/>
</g>
<!-- mux_1544074364&#45;&gt;cluster_HazardUnit_io_ifid_bubble -->
<g id="edge23" class="edge">
<title>mux_1544074364:out&#45;&gt;cluster_HazardUnit_io_ifid_bubble</title>
<path fill="none" stroke="#000000" d="M727.5,-121C745.9445,-121 766.053,-121 784.2225,-121"/>
<polygon fill="#000000" stroke="#000000" points="784.3807,-124.5001 794.3807,-121 784.3807,-117.5001 784.3807,-124.5001"/>
</g>
<!-- op_and_356&#45;&gt;mux_1544074364 -->
<g id="edge31" class="edge">
<title>op_and_356:out&#45;&gt;mux_1544074364:in2</title>
<path fill="none" stroke="#000000" d="M583.5,-137C618.9124,-137 626.2143,-113.1826 656.356,-108.7169"/>
<polygon fill="#000000" stroke="#000000" points="656.7716,-112.1963 666.5,-108 656.2781,-105.2137 656.7716,-112.1963"/>
</g>
<!-- op_or_357&#45;&gt;op_and_356 -->
<g id="edge20" class="edge">
<title>op_or_357:out&#45;&gt;op_and_356:in2</title>
<path fill="none" stroke="#000000" d="M430,-124C460.8116,-124 470.9518,-124 497.403,-124"/>
<polygon fill="#000000" stroke="#000000" points="497.5,-127.5001 507.5,-124 497.5,-120.5001 497.5,-127.5001"/>
</g>
<!-- op_eq_358&#45;&gt;op_or_357 -->
<g id="edge15" class="edge">
<title>op_eq_358:out&#45;&gt;op_or_357:in2</title>
<path fill="none" stroke="#000000" d="M204.5,-121C271.5001,-121 290.518,-111.9898 352.6449,-111.0747"/>
<polygon fill="#000000" stroke="#000000" points="353.0256,-114.5722 363,-111 352.975,-107.5724 353.0256,-114.5722"/>
</g>
<!-- op_or_359&#45;&gt;cluster_HazardUnit_io_idex_bubble -->
<g id="edge29" class="edge">
<title>op_or_359:out&#45;&gt;cluster_HazardUnit_io_idex_bubble</title>
<path fill="none" stroke="#000000" d="M730.5,-45C747.0855,-45 765.0525,-45 781.6392,-45"/>
<polygon fill="#000000" stroke="#000000" points="781.7637,-48.5001 791.7637,-45 781.7637,-41.5001 781.7637,-48.5001"/>
</g>
<!-- op_and_360&#45;&gt;op_or_359 -->
<g id="edge3" class="edge">
<title>op_and_360:out&#45;&gt;op_or_359:in2</title>
<path fill="none" stroke="#000000" d="M583.5,-61C617.6263,-61 624.5096,-37.3875 653.315,-32.7757"/>
<polygon fill="#000000" stroke="#000000" points="653.7947,-36.2494 663.5,-32 653.2631,-29.2696 653.7947,-36.2494"/>
</g>
<!-- op_or_361&#45;&gt;op_and_360 -->
<g id="edge6" class="edge">
<title>op_or_361:out&#45;&gt;op_and_360:in2</title>
<path fill="none" stroke="#000000" d="M430,-48C460.8116,-48 470.9518,-48 497.403,-48"/>
<polygon fill="#000000" stroke="#000000" points="497.5,-51.5001 507.5,-48 497.5,-44.5001 497.5,-51.5001"/>
</g>
<!-- op_eq_362&#45;&gt;op_or_361 -->
<g id="edge7" class="edge">
<title>op_eq_362:out&#45;&gt;op_or_361:in2</title>
<path fill="none" stroke="#000000" d="M204.5,-45C271.5001,-45 290.518,-35.9898 352.6449,-35.0747"/>
<polygon fill="#000000" stroke="#000000" points="353.0256,-38.5722 363,-35 352.975,-31.5724 353.0256,-38.5722"/>
</g>
</g>
</svg>
